Coordinates
version=1
nRows=9
nColumns=24
inDegrees=yes

Units are S.I. units (second, meters, Newtons, ...)
Angles are in degrees.

endheader
time	pelvis_tilt	pelvis_list	pelvis_rotation	pelvis_tx	pelvis_ty	pelvis_tz	hip_flexion_r	hip_adduction_r	hip_rotation_r	knee_angle_r	ankle_angle_r	subtalar_angle_r	mtp_angle_r	hip_flexion_l	hip_adduction_l	hip_rotation_l	knee_angle_l	ankle_angle_l	subtalar_angle_l	mtp_angle_l	lumbar_extension	lumbar_bending	lumbar_rotation
      4.21000000	    -17.88805178	     11.77283791	     -7.79833390	     -0.85499006	     -0.04338765	     -0.26200800	     20.72258645	    -10.91121277	      3.99265726	    -63.35717487	    -34.58114203	    -17.45377435	      7.21787766	     41.94661808	     13.83085649	      2.56172283	    -28.50927215	     19.43377868	     11.73332751	    -72.64517086	     14.80952909	     -9.33925648	      9.09947510
      4.21500000	    -17.80502465	     11.79677036	     -7.88329242	     -0.84753850	     -0.04177965	     -0.26188304	     21.88322785	    -10.63679710	      4.29599408	    -64.69480374	    -32.62030916	    -19.32984411	      2.89205411	     41.00420591	     13.79841334	      2.19675155	    -27.99672318	     20.08127894	     12.48045829	    -72.94293596	     14.80063689	     -9.30730641	      8.96443345
      4.22000000	    -17.71977973	     11.79739942	     -7.96470680	     -0.84012809	     -0.04010766	     -0.26166781	     23.01923550	    -10.31402530	      4.57330244	    -65.91910674	    -30.57200291	    -21.00598617	     -1.81497369	     40.02321966	     13.74642393	      1.87808437	    -27.42559516	     20.68154092	     13.21965251	    -73.22473513	     14.78210831	     -9.26735107	      8.80426611
      4.22500000	    -17.62662348	     11.77064823	     -8.02757805	     -0.83271847	     -0.03835646	     -0.26142135	     24.11165089	     -9.95399693	      4.81260239	    -67.01602145	    -28.46635103	    -22.43518688	     -6.87310075	     39.00152256	     13.68909986	      1.60451140	    -26.80707414	     21.21644149	     13.91292411	    -73.48492534	     14.74995535	     -9.21186023	      8.63551930
      4.23000000	    -17.52412722	     11.71163104	     -8.07821957	     -0.82531339	     -0.03652934	     -0.26113375	     25.16085589	     -9.55595237	      5.00555132	    -67.98808962	    -26.28350554	    -23.61651717	    -12.35314246	     37.93337261	     13.61966483	      1.39593697	    -26.13523399	     21.68392769	     14.55303000	    -73.71138298	     14.70436096	     -9.13791532	      8.44920218
      4.23500000	    -17.40996968	     11.62058467	     -8.10213599	     -0.81789064	     -0.03462897	     -0.26079695	     26.15586127	     -9.12860788	      5.12363972	    -68.83707689	    -23.91358604	    -24.52757654	    -18.65401522	     36.82192628	     13.54769244	      1.26359308	    -25.42511890	     22.08530672	     15.12282284	    -73.90817587	     14.64473860	     -9.05069467	      8.24185396
      4.24000000	    -17.27597054	     11.48004383	     -8.09948286	     -0.81047628	     -0.03264497	     -0.26039198	     27.09816663	     -8.65971912	      5.11652038	    -69.59227095	    -20.99883379	    -25.08099324	    -27.07343149	     35.64850497	     13.45440796	      1.22361123	    -24.66133399	     22.42750110	     15.62527522	    -74.08133037	     14.55132511	     -8.93993758	      7.99834817
      4.24500000	    -17.39869032	     10.27586982	     -8.19388871	     -0.80371108	     -0.02944521	     -0.25901531	     27.91393430	     -6.61543213	      5.23236611	    -68.12964354	     -2.96952504	    -27.00909093	   -135.53904468	     34.69520596	     12.08938774	      1.17754203	    -24.21001657	     23.10901037	     16.80677077	    -74.91059995	     14.48159936	     -7.80242426	      7.62531667
      4.25000000	    -17.35148552	     10.12222681	     -8.19964598	     -0.79642137	     -0.02753572	     -0.25877620	     28.84130587	     -6.11980698	      5.50297919	    -68.47411623	     -1.83666051	    -27.58421338	   -135.53706265	     33.60972931	     11.98102891	      1.14870844	    -23.39287882	     23.28193246	     17.16297620	    -74.83507339	     14.46686564	     -7.64211760	      7.42334886
